<svg width="25" height="24" viewBox="0 0 25 24" fill="none" xmlns="http://www.w3.org/2000/svg">
<g clip-path="url(#clip0_309_2573)">
<path d="M1.56262 20.7586C1.50089 20.332 1.49951 3.83541 1.56124 3.36047C1.67962 2.45105 2.26051 1.71679 3.13621 1.36967C3.64615 1.16783 10.5458 1.12507 11.1668 1.32047C11.8697 1.54116 12.4414 2.07587 12.7196 2.77426C12.9306 3.30254 12.9854 10.0262 12.7809 10.2308C12.6436 10.3674 12.5257 10.3752 12.3792 10.257C12.2705 10.1692 12.2705 10.1692 12.2475 6.7053C12.2212 2.75173 12.2433 2.93242 11.7209 2.41059C11.1935 1.88461 11.4054 1.90806 7.20147 1.90806C3.02335 1.90806 3.13943 1.89196 2.61244 2.54254C2.16838 3.09013 2.20523 2.31173 2.20523 11.1775V18.9425C10.4136 18.943 10.2017 18.9278 10.2538 19.2478C10.3196 19.6543 10.5559 19.6322 6.11387 19.6322H2.19648C2.23195 21.0386 2.35125 21.3471 2.78289 21.7412C3.31863 22.2294 3.30066 22.2267 6.15901 22.2529C8.66174 22.2759 8.66174 22.2759 8.72577 22.3908C8.81836 22.5582 8.80684 22.6566 8.6797 22.7839C8.56638 22.8966 8.56638 22.8966 6.12308 22.8966C3.80922 22.8966 3.66135 22.8915 3.34534 22.8032C2.39824 22.5393 1.70542 21.7444 1.56262 20.7586Z" fill="#656F77"/>
<path d="M11.1954 20.6722C12.1733 19.0216 12.212 18.9646 12.6317 18.5503C13.4549 17.737 14.3439 17.3839 15.6674 17.3439L16.3929 17.3223C16.3929 14.0901 16.3524 13.8386 15.9668 13.2556C15.4467 12.4694 14.8281 12.1839 13.6451 12.1839H12.892C12.892 14.3384 13.5392 15.2777 14.7636 15.5407C15.5292 15.7053 15.5168 15.7002 15.5771 15.8607C15.8005 16.4501 14.566 16.3935 13.6272 15.7706C12.6239 15.1053 12.2498 14.2634 12.2438 12.6533C12.2388 11.4322 12.1867 11.4791 13.5217 11.5039C14.777 11.5278 15.1105 11.617 15.7512 12.1007C16.4413 12.6221 16.357 12.8285 16.3911 10.5287C16.4206 8.5393 16.4215 8.52642 16.544 8.10022C16.9743 6.60596 18.0513 5.87861 19.8497 5.86665C20.8608 5.85976 20.917 5.93378 20.8262 7.15125C20.6761 9.16137 19.6976 10.1448 17.68 10.3135L17.0378 10.3673V17.3333C19.2872 17.3333 20.2117 17.6722 21.1192 18.5572C21.5831 19.0101 21.5872 19.0165 22.5846 20.6942C23.6454 22.4786 23.691 22.583 23.4966 22.7747C23.4128 22.857 23.375 22.8644 23.2244 22.8257C23.0535 22.7825 23.0259 22.7421 22.0318 21.0763C20.6977 18.8409 20.3094 18.4506 19.1071 18.1365C18.4387 17.9618 15.3431 17.9614 14.6572 18.1356C13.4337 18.4469 13.0348 18.8446 11.6846 21.1002C10.8388 22.5122 10.6357 22.8216 10.5311 22.8556C10.4344 22.8869 10.3819 22.8777 10.3082 22.8161C10.0424 22.5935 10.0083 22.6754 11.1954 20.6722ZM20.1601 7.06895L20.1827 6.52872C18.2977 6.53332 17.4087 7.18527 17.1267 8.48688C17.0779 8.71171 17.0378 9.06711 17.0378 9.27585C17.0378 9.65516 17.0378 9.65516 17.5791 9.63815C19.2434 9.58481 20.0892 8.74297 20.1601 7.06895Z" fill="#656F77"/>
<path d="M4.06553 6.69149C4.56396 6.30391 5.31206 6.46207 5.66538 7.02942C5.81187 7.26437 5.81187 7.26437 8.20035 7.26437C10.8592 7.26437 10.7731 7.25379 10.7731 7.57609C10.7731 7.92598 10.9127 7.90805 8.21463 7.90805C5.79989 7.90805 5.79989 7.90805 5.71099 8.08046C5.59536 8.30437 5.35859 8.52873 5.143 8.61839C5.04765 8.65793 4.83851 8.68965 4.67083 8.68965C4.40089 8.68965 4.34285 8.67172 4.10515 8.51724C3.44273 8.08598 3.42292 7.19034 4.06553 6.69149ZM4.21493 7.61067C4.21493 7.73681 4.26514 7.85779 4.35451 7.94699C4.44387 8.03619 4.56509 8.0863 4.69147 8.0863C4.81786 8.0863 4.93907 8.03619 5.02844 7.94699C5.11781 7.85779 5.16802 7.73681 5.16802 7.61067C5.16802 7.48452 5.11781 7.36354 5.02844 7.27434C4.93907 7.18514 4.81786 7.13503 4.69147 7.13503C4.56509 7.13503 4.44387 7.18514 4.35451 7.27434C4.26514 7.36354 4.21493 7.48452 4.21493 7.61067Z" fill="#656F77"/>
<path d="M5.38329 14.5972C5.38329 14.5393 5.2649 14.5287 4.62091 14.5287C3.79911 14.5287 3.63281 14.4759 3.63281 14.2152C3.63281 13.9306 3.7641 13.8851 4.57945 13.8851C5.33538 13.8851 5.33538 13.8851 5.42429 13.7126C5.93331 12.7269 7.40371 12.9857 7.52947 14.0832C7.58107 14.5338 7.29546 15.0359 6.88041 15.2244C6.7717 15.274 6.58744 15.309 6.43128 15.3094C6.253 15.3099 6.09638 15.2772 5.95174 15.2096C5.73385 15.1071 5.38329 14.7296 5.38329 14.5972ZM5.92976 14.2225C5.92976 14.3494 5.98025 14.471 6.07012 14.5607C6.15998 14.6504 6.28187 14.7008 6.40896 14.7008C6.53605 14.7008 6.65793 14.6504 6.7478 14.5607C6.83767 14.471 6.88815 14.3494 6.88815 14.2225C6.88815 14.0957 6.83767 13.974 6.7478 13.8843C6.65793 13.7946 6.53605 13.7442 6.40896 13.7442C6.28187 13.7442 6.15998 13.7946 6.07012 13.8843C5.98025 13.974 5.92976 14.0957 5.92976 14.2225Z" fill="#656F77"/>
<path d="M8.32106 9.80274C8.72782 9.82114 8.95768 9.95907 9.20551 10.3333C9.36582 10.5747 9.36582 10.5747 9.9771 10.5747C10.6626 10.5747 10.7731 10.6193 10.7731 10.8965C10.7731 11.1738 10.6626 11.2184 9.97388 11.2184C9.35891 11.2184 9.35891 11.2184 9.21611 11.4473C9.1378 11.5738 8.97749 11.7444 8.86002 11.8267C8.67162 11.9595 8.60712 11.9784 8.30494 11.9885C8.0244 11.9981 7.92812 11.9816 7.76828 11.8965C6.70186 11.3306 7.12014 9.74803 8.32106 9.80274ZM7.75455 10.917C7.75455 11.0434 7.80485 11.1646 7.89437 11.254C7.9839 11.3433 8.10533 11.3935 8.23195 11.3935C8.35856 11.3935 8.47999 11.3433 8.56952 11.254C8.65905 11.1646 8.70934 11.0434 8.70934 10.917C8.70934 10.7907 8.65905 10.6695 8.56952 10.5801C8.47999 10.4908 8.35856 10.4406 8.23195 10.4406C8.10533 10.4406 7.9839 10.4908 7.89437 10.5801C7.80485 10.6695 7.75455 10.7907 7.75455 10.917Z" fill="#656F77"/>
<path d="M3.72696 10.6956C3.82277 10.5747 3.82277 10.5747 5.19782 10.5747C6.68435 10.5747 6.76404 10.5913 6.76404 10.8965C6.76404 10.9402 6.7212 11.0308 6.66868 11.0975C6.57287 11.2184 6.57287 11.2184 5.19459 11.2184C3.81586 11.2184 3.81586 11.2184 3.72373 11.0952C3.60673 10.9388 3.60765 10.8474 3.72696 10.6956Z" fill="#656F77"/>
<path d="M8.0316 13.9775C8.16888 13.8257 10.5942 13.8345 10.7011 13.9871C10.8001 14.1283 10.7909 14.308 10.679 14.428C10.5868 14.5269 10.5606 14.5287 9.36611 14.5287C8.23798 14.5287 8.13986 14.5223 8.04727 14.4423C7.92335 14.3347 7.91552 14.1053 8.0316 13.9775Z" fill="#656F77"/>
<path d="M6.66553 20.3982C6.73233 20.3375 6.84703 20.3218 7.21832 20.3218C7.74714 20.3218 7.87106 20.383 7.87106 20.6437C7.87106 20.7205 7.83006 20.8225 7.77893 20.8736C7.69924 20.9531 7.62553 20.9655 7.22615 20.9655C6.86868 20.9655 6.74476 20.9485 6.67336 20.8906C6.55267 20.7922 6.54807 20.5039 6.66553 20.3982Z" fill="#656F77"/>
</g>
<defs>
<clipPath id="clip0_309_2573">
<rect width="24" height="24" fill="white" transform="translate(0.5)"/>
</clipPath>
</defs>
</svg>
