<svg width="25" height="24" viewBox="0 0 25 24" fill="none" xmlns="http://www.w3.org/2000/svg">
<path d="M8.49952 22.4063C9.50273 22.5279 10.7758 22.5279 12.4995 22.5279C14.2233 22.5279 15.4963 22.5279 16.4995 22.4063M8.49952 22.4063C7.58425 22.2955 6.89357 22.0834 6.29015 21.678C6.18869 21.6098 6.08976 21.5379 5.99356 21.4625C4.79442 20.5222 4.2851 18.9547 3.26647 15.8197C2.24783 12.6846 1.73852 11.1171 2.15596 9.65157C2.18945 9.534 2.22724 9.41771 2.26925 9.30291C2.79295 7.87189 4.12636 6.90311 6.79318 4.96556C9.45999 3.028 10.7934 2.05923 12.3162 2.00336C12.4384 1.99888 12.5607 1.99888 12.6828 2.00336C14.2056 2.05923 15.539 3.028 18.2059 4.96556C20.8727 6.90311 22.2061 7.87189 22.7298 9.30291C22.7718 9.41771 22.8096 9.534 22.8431 9.65157C23.2605 11.1171 22.7512 12.6846 21.7326 15.8197C20.7139 18.9547 20.2046 20.5222 19.0055 21.4625C18.9093 21.5379 18.8103 21.6098 18.7089 21.678C18.1055 22.0834 17.4148 22.2955 16.4995 22.4063M8.49952 22.4063V22.3197V18.8197C8.49952 16.6105 10.2904 14.8197 12.4995 14.8197C14.7087 14.8197 16.4995 16.6105 16.4995 18.8197V22.3197V22.4063" stroke="#656F77" stroke-width="1.5"/>
</svg>
