<svg width="25" height="24" viewBox="0 0 25 24" fill="none" xmlns="http://www.w3.org/2000/svg">
<path d="M2.56152 8.76569L2.5166 8.76666L2.51562 8.81158C2.45832 11.6303 3.3108 13.8498 4.86133 14.7881C5.75406 15.3301 6.80186 15.3733 7.86426 14.9356L7.92969 14.9083L7.87988 14.8594L5.38477 12.3643C5.28801 12.2676 5.2334 12.1359 5.2334 11.9991C5.23351 11.8624 5.28811 11.7315 5.38477 11.6348C5.48148 11.5382 5.61231 11.4835 5.74902 11.4835C5.88586 11.4835 6.0175 11.5381 6.11426 11.6348L8.60547 14.127L8.65527 14.1768L8.68262 14.1124C9.12058 13.0497 9.07632 12.0013 8.53516 11.1085C7.5969 9.55801 5.38015 8.7047 2.56152 8.76569ZM22.0449 5.01666C18.1015 4.96931 15.0003 6.19881 13.6689 8.39948C12.8254 9.79568 12.8003 11.4435 13.582 13.0987L13.6104 13.1592L13.6582 13.1124L18.8857 7.88483C18.9336 7.837 18.9902 7.79842 19.0527 7.77252C19.1152 7.74666 19.1823 7.73347 19.25 7.73346C19.3176 7.73346 19.3848 7.74669 19.4473 7.77252C19.5099 7.79845 19.5673 7.83692 19.6152 7.88483C19.663 7.93262 19.7007 7.98943 19.7266 8.05182C19.7524 8.11428 19.7656 8.18148 19.7656 8.24908C19.7656 8.31684 19.7525 8.38473 19.7266 8.44733C19.7007 8.5097 19.663 8.56654 19.6152 8.61432L14.3877 13.8409L14.3398 13.8878L14.4004 13.9161C16.0558 14.698 17.7042 14.6757 19.1016 13.8301C21.3713 12.4548 22.6089 9.19245 22.4746 5.07037L22.4736 5.02643L22.4297 5.02545L22.0449 5.01666ZM11.2344 18.213L11.2207 18.1993L8.73047 15.7169L8.70605 15.6924L8.67578 15.7081C7.98694 16.0664 7.2227 16.2567 6.44629 16.2647C5.79196 16.2656 5.14842 16.1093 4.57031 15.8087L4.32617 15.671L4.14551 15.5547C2.30032 14.3092 1.31123 11.6054 1.50879 8.2442C1.51614 8.11824 1.57005 7.99953 1.65918 7.91022C1.74835 7.82089 1.86717 7.7674 1.99316 7.75983C5.46347 7.55407 8.23208 8.61603 9.41992 10.5772C10.1996 11.8645 10.206 13.4269 9.44824 14.9239L9.43262 14.9542L9.45703 14.9776L11.3135 16.835L11.374 16.8956L11.3926 16.8116C11.6272 15.7572 12.1223 14.7784 12.833 13.9649L12.8545 13.9405L12.8389 13.9122C11.7288 11.8319 11.7076 9.64897 12.7881 7.86432C14.4128 5.18241 18.2234 3.73781 22.9971 4.01862C23.1227 4.02621 23.241 4.08007 23.3301 4.16901C23.4192 4.25816 23.4729 4.37714 23.4805 4.50299C23.7612 9.27663 22.3167 13.0873 19.6348 14.71V14.711C18.7725 15.2351 17.7815 15.5102 16.7725 15.5069C15.7404 15.5068 14.6689 15.2295 13.624 14.6768L13.5908 14.6602L13.5664 14.6885C12.7231 15.6775 12.2618 16.9357 12.2656 18.2354V21.0001C12.2656 21.1367 12.2108 21.2677 12.1143 21.3643C12.0176 21.4609 11.8866 21.5156 11.75 21.5157C11.6132 21.5157 11.4815 21.461 11.3848 21.3643C11.2882 21.2677 11.2344 21.1367 11.2344 21.0001V18.213Z" fill="#656F77" stroke="#656F77" stroke-width="0.09375"/>
</svg>
