<svg width="19" height="18" viewBox="0 0 19 18" fill="none" xmlns="http://www.w3.org/2000/svg">
<path d="M9.5 0.25C14.3324 0.25 18.25 4.16757 18.25 9C18.25 13.8324 14.3324 17.75 9.5 17.75C4.66757 17.75 0.75 13.8324 0.75 9C0.75 4.16757 4.66757 0.25 9.5 0.25ZM9.5 0.75C4.94343 0.75 1.25 4.44343 1.25 9C1.25 13.5566 4.94343 17.25 9.5 17.25C14.0566 17.25 17.75 13.5566 17.75 9C17.75 4.44343 14.0566 0.75 9.5 0.75Z" fill="#656F77" stroke="#656F77" stroke-width="0.5"/>
<path d="M5.7373 10.75H13.2646C13.7565 10.75 14.0725 11.1922 13.9209 11.5967L13.8965 11.6612C13.0591 13.8261 11.3824 15.25 9.50098 15.25C7.61926 15.25 5.9422 13.8256 5.10547 11.6602V11.6592L5.08008 11.5948C4.93106 11.1905 5.24681 10.7501 5.7373 10.75ZM5.67383 11.7305L5.69434 11.7784C5.8292 12.0875 5.98878 12.3855 6.16992 12.67L6.24316 12.7862H12.7588L12.832 12.6709C13.0332 12.3561 13.2146 12.0082 13.3701 11.6309L13.5127 11.2862H5.67383V11.7305ZM12.5537 6.41116C13.0352 6.39131 13.4267 6.65518 13.709 7.00198L13.8232 7.1553C13.9586 7.35416 14.0651 7.57113 14.1396 7.79984V7.79886C14.2054 8.00572 14.2314 8.19207 14.2139 8.32132C14.1219 8.26244 14.0266 8.19166 13.9297 8.11526L13.6357 7.87503L13.3779 7.66312L13.165 7.50491C13.0959 7.45738 13.0284 7.41514 12.9629 7.37991C12.8332 7.3102 12.6957 7.25902 12.5537 7.25198C12.3524 7.24205 12.1539 7.32462 11.9609 7.44632L11.7695 7.57913C11.6749 7.65008 11.5839 7.72492 11.4951 7.79691H11.4941L11.3975 7.87601C11.2759 7.97411 11.158 8.06638 11.043 8.13577H11.042L11.0215 8.04495C11.0088 7.94608 11.0214 7.82287 11.0576 7.68948L11.0566 7.68851C11.1137 7.48824 11.2051 7.2991 11.3252 7.12894L11.3262 7.12796C11.5863 6.75654 12.0036 6.43444 12.5537 6.41116ZM6.40625 6.41116C6.95646 6.43459 7.37435 6.7567 7.63379 7.12796V7.12894C7.73139 7.26802 7.80663 7.41354 7.8584 7.55276L7.90234 7.68948C7.95018 7.86744 7.95615 8.02613 7.91699 8.1348C7.79426 8.05741 7.67674 7.97201 7.56543 7.87894L7.56348 7.87796L7.46582 7.79788L7.46484 7.79691L7.19043 7.57913C6.93786 7.39046 6.67432 7.23873 6.40527 7.25198C6.2635 7.25908 6.12573 7.3102 5.99609 7.37991C5.86542 7.45021 5.72754 7.5472 5.58203 7.66214C5.49892 7.72748 5.41108 7.80117 5.32324 7.87503C5.17548 7.99842 5.02789 8.12203 4.88574 8.22562L4.74609 8.32132C4.72858 8.19221 4.75423 8.00625 4.82031 7.79984C4.87619 7.62838 4.94954 7.46324 5.04004 7.30765L5.13672 7.1553C5.42326 6.73629 5.85585 6.38828 6.40625 6.41116Z" fill="#656F77" stroke="#656F77" stroke-width="0.5"/>
<path d="M5.7373 10.75H13.2646C13.3318 10.7498 13.399 10.7587 13.4639 10.7764C13.8399 10.8802 14.0515 11.2483 13.9199 11.5977V11.5986C13.7455 12.0677 13.5215 12.5168 13.252 12.9385C13.2021 13.0157 13.1509 13.0918 13.0986 13.166L12.9385 13.3838C12.0377 14.5516 10.8226 15.25 9.50098 15.25C8.17914 15.25 6.96335 14.5514 6.0625 13.3828H6.06348C5.95442 13.241 5.84873 13.0929 5.74902 12.9385C5.60563 12.7155 5.47381 12.4801 5.35352 12.2324L5.2373 11.9795C5.18228 11.8531 5.13004 11.7255 5.08105 11.5967L5.08008 11.5947C5.04696 11.5094 5.03467 11.4173 5.04395 11.3262C5.05321 11.2352 5.08327 11.1472 5.13281 11.0703L5.13379 11.0713C5.22748 10.9273 5.37042 10.8225 5.53613 10.7773H5.53711C5.56977 10.7683 5.60321 10.7613 5.63672 10.7568L5.7373 10.75ZM5.67383 11.7305L5.69434 11.7783C5.8292 12.0874 5.98878 12.3854 6.16992 12.6699L6.24316 12.7861H12.7588L12.833 12.6699C13.0418 12.34 13.2214 11.9919 13.3701 11.6309L13.5127 11.2861H5.67383V11.7305Z" fill="#656F77" stroke="#656F77" stroke-width="0.5"/>
</svg>
